# xmcd
#
# Track frame offsets: 
#        150
#        12325
#        25770
#        39232
#
# Disc length: 700 seconds
#
# Revision: 0
# Processed by: cddbd v1.4PL0 Copyright (c) Steve Scherf et al.
# Submitted via: ExactAudioCopy v0.90a11
#
DISCID=2102ba04
DTITLE=G. Love and Special Sauce - Rodeo Clowns - Single
DYEAR=1900
DGENRE=
TTITLE0=Rodeo Clowns==Radio Edit
TTITLE1=Rodeo Clowns==King Brit Mix*
TTITLE2=Rodeo Clowns==Instrumental*
TTITLE3=Rodeo Clowns==A Cappella*
EXTD=
EXTT0=Performed by G. Love and Special Sauce\nWritten by jack johnson,
EXTT0=Produced by T-Ray
EXTT1=Performed by G. Love and Special Sauce\nWritten by jack johnson,
EXTT1=Produced by T-Ray\n     *re-produced and remixed by King Brit
EXTT1=t for Sylkscreen Productions.\n     *mixed By Joe "The Butcher" 
EXTT1=Nicolo
EXTT2=Performed by G. Love and Special Sauce\nWritten by jack johnson,
EXTT2=Produced by T-Ray\n     *re-produced and remixed by King Brit
EXTT2=t for Sylkscreen Productions.\n     *mixed By Joe "The Butcher" 
EXTT2=Nicolo
EXTT3=Performed by G. Love\nWritten by jack johnson,   Produced by T-R
EXTT3=ay\n     *re-produced and remixed by King Britt for Sylkscreen P
EXTT3=roductions.\n     *mixed By Joe "The Butcher" Nicolo
PLAYORDER=
